<svg width="720" height="220" viewBox="0 0 720 220" fill="none" xmlns="http://www.w3.org/2000/svg">
  <rect x="10" y="10" width="200" height="200" rx="58" fill="url(#bg)"/>
  <path d="M54 68C54 58.0589 62.0589 50 72 50H148C157.941 50 166 58.0589 166 68V83H54V68Z" fill="white" fill-opacity="0.18"/>
  <path d="M54 92H166V138C166 147.941 157.941 156 148 156H72C62.0589 156 54 147.941 54 138V92Z" fill="white" fill-opacity="0.12"/>
  <path d="M79 78L84 64" stroke="white" stroke-width="7" stroke-linecap="round"/>
  <path d="M136 78L141 64" stroke="white" stroke-width="7" stroke-linecap="round"/>
  <path d="M91 118H133" stroke="white" stroke-width="14" stroke-linecap="round"/>
  <path d="M91 118L120 142" stroke="white" stroke-width="14" stroke-linecap="round"/>
  <path d="M91 118L120 94" stroke="white" stroke-width="14" stroke-linecap="round"/>
  <path d="M34 42L50 56" stroke="white" stroke-opacity="0.65" stroke-width="7" stroke-linecap="round"/>
  <path d="M186 42L170 56" stroke="white" stroke-opacity="0.65" stroke-width="7" stroke-linecap="round"/>
  <path d="M262 88H431.4" stroke="#0F172A" stroke-width="3"/>
  <path d="M262 132H523" stroke="#0F172A" stroke-width="3"/>
  <text x="257" y="92" fill="#0F172A" font-family="Sora, Arial, sans-serif" font-size="64" font-weight="700">EventSphere</text>
  <text x="262" y="150" fill="#475569" font-family="Space Grotesk, Arial, sans-serif" font-size="24" letter-spacing="8">FUTURISTIC EVENT OPERATING SYSTEM</text>
  <defs>
    <linearGradient id="bg" x1="38" y1="24" x2="184" y2="186" gradientUnits="userSpaceOnUse">
      <stop stop-color="#A78BFA"/>
      <stop offset="0.5" stop-color="#60A5FA"/>
      <stop offset="1" stop-color="#F472B6"/>
    </linearGradient>
  </defs>
</svg>
